<svg width="60" height="60" viewBox="0 0 60 60" fill="none" xmlns="http://www.w3.org/2000/svg">
<g clip-path="url(#clip0_1665_871)">
<path d="M40.6891 35.2977L32.3234 29.0235V16.2428C32.3234 14.9577 31.2847 13.9189 29.9996 13.9189C28.7145 13.9189 27.6758 14.9577 27.6758 16.2428V30.1855C27.6758 30.9175 28.0197 31.6077 28.6053 32.0446L37.9004 39.0159C38.3186 39.3296 38.8067 39.4807 39.2923 39.4807C40.0011 39.4807 40.6982 39.1623 41.1537 38.5488C41.9254 37.5239 41.7162 36.0669 40.6891 35.2977Z" fill="white"/>
<path d="M30 0C13.457 0 0 13.457 0 30C0 46.543 13.457 60 30 60C46.543 60 60 46.543 60 30C60 13.457 46.543 0 30 0ZM30 55.3525C16.0225 55.3525 4.64754 43.9775 4.64754 30C4.64754 16.0225 16.0225 4.64754 30 4.64754C43.9799 4.64754 55.3525 16.0225 55.3525 30C55.3525 43.9775 43.9775 55.3525 30 55.3525Z" fill="white"/>
</g>
<defs>
<clipPath id="clip0_1665_871">
<rect width="60" height="60" fill="white"/>
</clipPath>
</defs>
</svg>
