<svg width="70" height="70" viewBox="0 0 70 70" fill="none" xmlns="http://www.w3.org/2000/svg">
<g clip-path="url(#clip0_1665_862)">
<path d="M65.8984 29.5697C65.8984 35.2916 61.9608 40.1221 56.4419 41.3067V45.4793C60.1808 44.8833 63.6073 42.9697 66.0928 40.0885C68.6125 37.1672 70 33.4315 70 29.5697C70 20.6857 62.7726 13.4583 53.8885 13.4583C53.3176 13.4583 52.7478 13.4887 52.1812 13.5485C49.732 5.58998 42.3048 0 33.8203 0C28.7152 0 23.9082 1.98082 20.2862 5.57823C17.1999 8.64265 15.2805 12.5739 14.7571 16.8266C14.6476 16.8239 14.5381 16.8228 14.4292 16.8228C6.47278 16.8228 0 23.2956 0 31.252C0 38.2626 5.00198 44.2365 11.8945 45.4585V41.2645C7.33795 40.1211 4.10156 36.0233 4.10156 31.252C4.10156 25.5573 8.73451 20.9244 14.4292 20.9244C15.0423 20.9244 15.6703 20.9821 16.2952 21.0963L18.6952 21.5337L18.7134 19.0942C18.7759 10.827 25.5525 4.10156 33.8203 4.10156C41.0231 4.10156 47.2577 9.22264 48.6441 16.2786L49.0543 18.3668L51.1259 17.8792C52.0263 17.6672 52.9561 17.5598 53.8885 17.5598C60.5109 17.5598 65.8984 22.9474 65.8984 29.5697Z" fill="white"/>
<path d="M43.9978 32.5254C39.2628 32.5254 35.4102 36.3775 35.4102 41.113V51.415C35.4102 56.1505 39.2628 60.0027 43.9978 60.0027C48.7333 60.0027 52.5854 56.1505 52.5854 51.415V41.113C52.5854 36.3775 48.7333 32.5254 43.9978 32.5254ZM48.4839 51.415C48.4839 53.8888 46.4716 55.9011 43.9978 55.9011C41.524 55.9011 39.5117 53.8888 39.5117 51.415V41.113C39.5117 38.6393 41.524 36.627 43.9978 36.627C46.4716 36.627 48.4839 38.6393 48.4839 41.113V51.415Z" fill="white"/>
<path d="M24.3015 36.627C26.7753 36.627 28.7881 38.6393 28.7881 41.113H32.8897C32.8897 36.3775 29.037 32.5254 24.3015 32.5254C19.5666 32.5254 15.7139 36.3775 15.7139 41.113V51.415C15.7139 56.1505 19.5666 60.0027 24.3015 60.0027C29.037 60.0027 32.8897 56.1505 32.8897 51.415H28.7881C28.7881 53.8888 26.7753 55.9011 24.3015 55.9011C21.8283 55.9011 19.8154 53.8888 19.8154 51.415V41.113C19.8154 38.6393 21.8283 36.627 24.3015 36.627Z" fill="white"/>
<path d="M67.4385 57.5088C67.4385 53.8147 64.4328 50.8096 60.7393 50.8096C57.0452 50.8096 54.04 53.8147 54.04 57.5088V58.7035H58.1416V57.5088C58.1416 56.0764 59.3064 54.9111 60.7393 54.9111C62.1716 54.9111 63.3369 56.0764 63.3369 57.5088C63.3369 58.2346 62.9796 58.9134 62.3815 59.3246L56.4198 63.4251C54.9298 64.4494 54.04 66.1413 54.04 67.9496V70.0004H67.4385V65.8988H60.0605L64.7057 62.7046C66.4168 61.5276 67.4385 59.5852 67.4385 57.5088Z" fill="white"/>
</g>
<defs>
<clipPath id="clip0_1665_862">
<rect width="70" height="70" fill="white"/>
</clipPath>
</defs>
</svg>
