<svg width="65" height="65" viewBox="0 0 65 65" fill="none" xmlns="http://www.w3.org/2000/svg">
<g clip-path="url(#clip0_1665_843)">
<path d="M59.6642 25.9245L61.5079 22.8516H63.0957C64.1474 22.8516 65 21.9989 65 20.9473C65 19.8956 64.1474 19.043 63.0957 19.043H60.4297C59.7608 19.043 59.141 19.394 58.7968 19.9676L57.2463 22.5516L54.6894 13.6021C53.6825 10.0783 50.4197 7.61719 46.7549 7.61719H18.2451C14.5803 7.61719 11.3175 10.0783 10.3106 13.6023L7.75366 22.5517L6.20318 19.9677C5.85901 19.394 5.23923 19.043 4.57031 19.043H1.9043C0.852617 19.043 0 19.8956 0 20.9473C0 21.9989 0.852617 22.8516 1.9043 22.8516H3.4921L5.33584 25.9245C2.22092 27.1053 0 30.1187 0 33.6426V47.8613C0 48.913 0.852617 49.7656 1.9043 49.7656H5.20508V52.9395C5.20508 55.3895 7.19837 57.3828 9.64844 57.3828H14.7266C17.1766 57.3828 19.1699 55.3895 19.1699 52.9395V49.7656H45.8301V52.9395C45.8301 55.3895 47.8234 57.3828 50.2734 57.3828H55.3516C57.8016 57.3828 59.7949 55.3895 59.7949 52.9395V49.7656H63.0957C64.1474 49.7656 65 48.913 65 47.8613V33.6426C65 30.1187 62.7791 27.1053 59.6642 25.9245ZM13.9727 14.6485C14.5148 12.751 16.2717 11.4258 18.2451 11.4258H46.7549C48.7283 11.4258 50.4852 12.751 51.0273 14.6485L54.0965 25.3906H50.7166C49.832 21.0498 45.9848 17.7734 41.3867 17.7734C36.7886 17.7734 32.9415 21.0498 32.0568 25.3906H10.9035L13.9727 14.6485ZM36.0001 25.3906C36.7861 23.1739 38.904 21.582 41.3867 21.582C43.8694 21.582 45.9874 23.1739 46.7733 25.3906H36.0001ZM15.3613 52.9395C15.3613 53.2895 15.0766 53.5742 14.7266 53.5742H9.64844C9.29843 53.5742 9.01367 53.2895 9.01367 52.9395V49.7656H15.3613V52.9395ZM26.7871 45.957V40.625H38.2129V45.957H26.7871ZM55.9863 52.9395C55.9863 53.2895 55.7016 53.5742 55.3516 53.5742H50.2734C49.9234 53.5742 49.6387 53.2895 49.6387 52.9395V49.7656H55.9863V52.9395ZM61.1914 45.957H42.0215V38.7207C42.0215 37.669 41.1689 36.8164 40.1172 36.8164H24.8828C23.8311 36.8164 22.9785 37.669 22.9785 38.7207V45.957H3.80859V33.6426C3.80859 31.1925 5.80188 29.1992 8.25195 29.1992H8.37091C8.37421 29.1992 8.37738 29.1995 8.38068 29.1995C8.38386 29.1995 8.3869 29.1992 8.39008 29.1992H56.6099C56.6131 29.1992 56.6161 29.1995 56.6193 29.1995C56.6226 29.1995 56.6258 29.1992 56.6291 29.1992H56.748C59.1981 29.1992 61.1914 31.1925 61.1914 33.6426V45.957Z" fill="white"/>
<path d="M51.543 31.8652C48.3929 31.8652 45.8301 34.428 45.8301 37.5781C45.8301 40.7282 48.3929 43.291 51.543 43.291C54.6931 43.291 57.2559 40.7282 57.2559 37.5781C57.2559 34.428 54.6931 31.8652 51.543 31.8652ZM51.543 39.4824C50.4929 39.4824 49.6387 38.6282 49.6387 37.5781C49.6387 36.5281 50.4929 35.6738 51.543 35.6738C52.593 35.6738 53.4473 36.5281 53.4473 37.5781C53.4473 38.6282 52.593 39.4824 51.543 39.4824Z" fill="white"/>
<path d="M13.457 31.8652C10.3069 31.8652 7.74414 34.428 7.74414 37.5781C7.74414 40.7282 10.3069 43.291 13.457 43.291C16.6071 43.291 19.1699 40.7282 19.1699 37.5781C19.1699 34.428 16.6071 31.8652 13.457 31.8652ZM13.457 39.4824C12.407 39.4824 11.5527 38.6282 11.5527 37.5781C11.5527 36.5281 12.407 35.6738 13.457 35.6738C14.5071 35.6738 15.3613 36.5281 15.3613 37.5781C15.3613 38.6282 14.5071 39.4824 13.457 39.4824Z" fill="white"/>
</g>
<defs>
<clipPath id="clip0_1665_843">
<rect width="65" height="65" fill="white"/>
</clipPath>
</defs>
</svg>
