<svg width="70" height="70" viewBox="0 0 70 70" fill="none" xmlns="http://www.w3.org/2000/svg">
<path d="M19.6897 13.4904C20.0747 13.8776 20.5779 14.0701 21.0832 14.0701C21.5863 14.0701 22.0894 13.8776 22.4744 13.4926C23.2444 12.7226 23.2444 11.4779 22.4744 10.7101L21.0897 9.32324C20.3219 8.54887 19.075 8.54887 18.305 9.32106C17.535 10.0911 17.535 11.3357 18.305 12.1036L19.6897 13.4904Z" fill="white"/>
<path d="M48.9173 14.0703C49.4204 14.0703 49.9257 13.8778 50.3107 13.4906L51.6954 12.1037C52.4632 11.3337 52.4632 10.089 51.6954 9.32121C50.9254 8.54902 49.6807 8.55121 48.9107 9.3234L47.5261 10.7103C46.7582 11.4803 46.7582 12.725 47.5261 13.4928C47.9111 13.8778 48.4142 14.0703 48.9173 14.0703Z" fill="white"/>
<path d="M54.6836 27.9873H56.6436C57.7308 27.9873 58.6123 27.1057 58.6123 26.0186C58.6123 24.9314 57.7308 24.0498 56.6436 24.0498H54.6836C53.5964 24.0498 52.7148 24.9314 52.7148 26.0186C52.7148 27.1057 53.5942 27.9873 54.6836 27.9873Z" fill="white"/>
<path d="M13.3574 27.9873H15.3174C16.4046 27.9873 17.2862 27.1057 17.2862 26.0186C17.2862 24.9314 16.4046 24.0498 15.3174 24.0498H13.3574C12.2702 24.0498 11.3887 24.9314 11.3887 26.0186C11.3887 27.1057 12.2702 27.9873 13.3574 27.9873Z" fill="white"/>
<path d="M35 8.30594C36.0872 8.30594 36.9687 7.42438 36.9687 6.33719V4.375C36.9687 3.28781 36.0872 2.40625 35 2.40625C33.9128 2.40625 33.0312 3.28781 33.0312 4.375V6.335C33.0312 7.42437 33.9128 8.30594 35 8.30594Z" fill="white"/>
<path d="M23.0105 27.5407C24.1546 27.5625 25.0099 26.7247 25.0449 25.6397C25.2286 20.2541 29.6014 16.0344 35.0002 16.0344C40.3989 16.0344 44.7718 20.2541 44.9555 25.6397C44.9927 26.7029 45.8655 27.5429 46.9221 27.5429C46.944 27.5429 46.968 27.5407 46.9899 27.5407C48.0771 27.5035 48.928 26.5913 48.8908 25.5063C48.6327 17.9879 42.5318 12.0947 35.0002 12.0947C27.4686 12.0947 21.3677 17.9879 21.1096 25.5063C21.0724 26.5913 21.9233 27.5035 23.0105 27.5407Z" fill="white"/>
<path d="M65.1395 63.188L56.8183 34.8183C56.3917 33.3658 55.0355 32.3486 53.5173 32.3486H16.483C14.967 32.3486 13.6108 33.3658 13.182 34.8205L4.86079 63.1858C4.55235 64.2358 4.75141 65.3405 5.40766 66.2177C6.06391 67.0949 7.06579 67.5936 8.15954 67.5936H61.8408C62.9345 67.5936 63.9364 67.0927 64.5927 66.2155C65.2489 65.3383 65.4458 64.2358 65.1395 63.188ZM56.022 46.0971H36.9689V36.2883H53.1455L56.022 46.0971ZM16.8548 36.2883H33.0314V46.0971H13.9783L16.8548 36.2883ZM12.8211 50.0368H33.0314V63.6561H8.82672L12.8211 50.0368ZM36.9689 63.6561V50.0368H57.1792L61.1736 63.6561H36.9689Z" fill="white"/>
</svg>
