<svg width="60" height="60" viewBox="0 0 60 60" fill="none" xmlns="http://www.w3.org/2000/svg">
<path d="M47.4 1.875H12.6C9.75708 1.87996 7.03201 3.0115 5.02176 5.02176C3.0115 7.03201 1.87996 9.75708 1.875 12.6V47.4C1.87996 50.2429 3.0115 52.968 5.02176 54.9782C7.03201 56.9885 9.75708 58.12 12.6 58.125H47.4C50.2429 58.12 52.968 56.9885 54.9782 54.9782C56.9885 52.968 58.12 50.2429 58.125 47.4V12.6C58.12 9.75708 56.9885 7.03201 54.9782 5.02176C52.968 3.0115 50.2429 1.87996 47.4 1.875ZM54.375 47.4C54.3701 49.2484 53.6336 51.0196 52.3266 52.3266C51.0196 53.6336 49.2484 54.3701 47.4 54.375H12.6C10.7516 54.3701 8.98039 53.6336 7.6734 52.3266C6.3664 51.0196 5.62995 49.2484 5.625 47.4V12.6C5.62995 10.7516 6.3664 8.98039 7.6734 7.6734C8.98039 6.3664 10.7516 5.62995 12.6 5.625H47.4C49.2484 5.62995 51.0196 6.3664 52.3266 7.6734C53.6336 8.98039 54.3701 10.7516 54.375 12.6V47.4Z" fill="white"/>
<path d="M46.875 33.45C46.3777 33.45 45.9008 33.6475 45.5492 33.9992C45.1975 34.3508 45 34.8277 45 35.325V42.3563L17.6437 15H24.675C25.1723 15 25.6492 14.8025 26.0008 14.4508C26.3525 14.0992 26.55 13.6223 26.55 13.125C26.55 12.6277 26.3525 12.1508 26.0008 11.7992C25.6492 11.4475 25.1723 11.25 24.675 11.25H12.5438C12.2006 11.25 11.8716 11.3863 11.6289 11.6289C11.3863 11.8716 11.25 12.2006 11.25 12.5438V24.675C11.25 25.1723 11.4475 25.6492 11.7992 26.0008C12.1508 26.3525 12.6277 26.55 13.125 26.55C13.6223 26.55 14.0992 26.3525 14.4508 26.0008C14.8025 25.6492 15 25.1723 15 24.675V17.6437L42.3563 45H35.325C34.8277 45 34.3508 45.1975 33.9992 45.5492C33.6475 45.9008 33.45 46.3777 33.45 46.875C33.45 47.3723 33.6475 47.8492 33.9992 48.2008C34.3508 48.5525 34.8277 48.75 35.325 48.75H47.4562C47.7994 48.75 48.1284 48.6137 48.3711 48.3711C48.6137 48.1284 48.75 47.7994 48.75 47.4562V35.325C48.75 34.8277 48.5525 34.3508 48.2008 33.9992C47.8492 33.6475 47.3723 33.45 46.875 33.45Z" fill="white"/>
</svg>
